<?xml version="1.0" encoding="utf-8"?>
<!-- Generator: Adobe Illustrator 23.0.1, SVG Export Plug-In . SVG Version: 6.00 Build 0)  -->
<svg version="1.1" id="Calque_1" xmlns="http://www.w3.org/2000/svg" xmlns:xlink="http://www.w3.org/1999/xlink" x="0px" y="0px"
	 viewBox="0 0 432 432" style="enable-background:new 0 0 432 432;" xml:space="preserve">
<style type="text/css">
	.st0{fill:#282828;}
	.st1{fill:#9E1D28;}
	.st2{fill:#036838;}
	.st3{fill:#B07F4F;}
	.st4{fill:#BA2314;}
	.st5{fill:#C58247;}
	.st6{fill:#A1272D;}
	.st7{fill:#C0864D;}
	.st8{fill:#7D95B2;}
	.st9{fill:#BE914C;}
	.st10{fill:#DFEBF2;}
	.st11{fill:#74AAAF;}
	.st12{fill:#E6E6E6;}
	.st13{fill:#354F2C;}
	.st14{fill:#BF9C63;}
	.st15{fill:#362317;}
	.st16{fill:#634E42;}
	.st17{fill:#333333;}
	.st18{fill:#728290;}
	.st19{fill:#C7D2D8;}
	.st20{fill:#C69C6D;}
	.st21{fill:#EB9BAB;}
	.st22{fill:#6595AA;}
	.st23{fill:#9B3947;}
	.st24{fill:#80171B;}
	.st25{fill:#162640;}
	.st26{fill:#CC6C74;}
	.st27{fill:#EBCCCF;}
</style>
<g>
	<g>
		<g>
			<path class="st7" d="M235.636,174.469c0,1.047-0.174,1.28-1.106,1.28c-1.57,0-3.141-0.058-4.77-0.117
				c-0.523,0-0.931-0.408-0.989-0.93c0-0.234-0.117-16.001-0.117-17.105l-12.857,0.232c0,0.523,0.174,16.755,0.174,17.046
				c0,0.408-0.349,0.757-0.757,0.757c-1.92,0-3.781,0-5.644-0.059c-0.64,0-0.755-0.173-0.755-0.989
				c0-2.151-0.291-38.631-0.291-39.037c0.058-0.931,0.174-1.048,1.047-1.107c1.338-0.058,2.735-0.058,4.072-0.058
				c0.35,0,0.699-0.058,1.048,0c0.466,0,0.872,0.408,0.872,0.931c0.059,1.163,0.059,2.503,0.059,3.724
				c0.058,3.957,0.174,12.334,0.174,12.742c4.304-0.058,8.436-0.117,12.74-0.176c0-0.349-0.115-11.054-0.232-16.115
				c0-0.989,0.117-1.163,0.989-1.106c1.629,0,3.258,0.058,4.887,0.117c0.814,0,0.989,0.174,1.106,0.989
				C235.345,136.128,235.636,173.015,235.636,174.469z"/>
			<path class="st7" d="M261.178,164.404c0,2.501-0.35,4.945-1.746,7.156c-1.571,2.327-3.783,3.607-6.517,3.898
				c-1.687,0.115-3.373,0.115-5.002,0c-3.259-0.349-5.469-2.211-6.692-5.178c-0.814-1.978-1.163-4.072-1.28-6.167
				c-0.115-3.083-0.466-21.992-0.581-28.334c0-1.397,0-1.397,1.338-1.397c1.28,0,2.56,0,3.781,0c0.234,0,0.466,0.058,0.699,0.058
				c0.407,0.059,0.64,0.35,0.698,0.699c0.058,1.221,0.117,2.386,0.117,3.49c0.058,5.76,0.058,11.521,0.115,17.339
				c0.059,2.676,0.234,5.351,0.35,8.028c0.115,1.455,0.407,2.792,1.395,3.899c1.862,2.151,4.887,1.919,6.341-0.467
				c0.525-0.872,0.814-1.802,0.874-2.792c0.058-2.501,0.174-5.004,0.174-7.564c-0.058-6.865-0.117-13.787-0.174-20.653
				c0-0.466-0.059-0.931-0.059-1.397c0-0.464,0.234-0.698,0.699-0.698c1.57,0,3.141,0.058,4.712,0.115
				c0.406,0,0.64,0.291,0.64,0.699c0.058,0.291,0.058,0.699,0.058,1.048C261.119,145.554,261.178,154.979,261.178,164.404z"/>
			<path class="st7" d="M300.041,174.703c-0.058,0.64-0.232,0.93-0.872,0.93c-1.571,0-3.2,0-4.772,0
				c-0.464,0-0.698-0.29-0.755-0.814c0-0.058-0.234-19.317-0.408-19.723c-0.174,0.349-7.97,18.85-8.262,19.608
				c-0.232,0.64-0.757,0.989-1.455,0.93c-0.174,0-0.349,0-0.523,0.059c-1.338,0.173-2.095-0.408-2.677-1.629
				c-2.676-5.703-5.41-11.404-8.145-17.048c-0.117-0.349-0.291-0.698-0.581-1.222c-0.059,0.467,0.29,18.328,0.29,18.56
				c-0.058,0.872-0.232,1.106-1.106,1.163c-1.338,0-2.676,0-4.013,0c-1.165,0-1.28-0.173-1.339-1.28
				c0-1.338-0.232-26.646-0.349-37.933c0-1.862,0.117-1.978,1.92-1.978c0.814,0,1.688,0.058,2.56,0
				c0.931-0.058,1.455,0.349,1.803,1.222c0.466,1.395,9.95,23.794,10.822,25.831c0.117,0.349,0.291,0.699,0.523,1.221
				c0.174-0.29,0.291-0.464,0.349-0.698c1.979-5.41,8.321-22.748,9.484-26.122c0.407-1.163,0.64-1.397,1.92-1.339
				c1.221,0,2.443,0.059,3.664,0.118c0.931,0.058,1.222,0.349,1.28,1.28c0.059,1.687,0.234,14.021,0.291,18.616
				C299.809,161.03,300.041,174.527,300.041,174.703z"/>
			<path class="st7" d="M320.868,174.76c-3.666,0.755-7.33,0.813-11.054,0.813c-1.571,0-3.143,0.059-4.712,0
				c-0.35-0.058-0.64-0.349-0.64-0.755c-0.117-7.681-0.234-15.36-0.35-23.097c-0.058-5.12-0.232-10.298-0.349-15.477
				c0-0.407,0-0.989,0-1.514c0-0.232,0.174-0.349,0.349-0.349c1.805,0,5.295,0.117,7.447,0.234c2.037,0.174,3.84,0.931,5.412,2.152
				c4.189,3.083,4.596,9.076,0.814,12.684c-0.698,0.64-1.455,1.162-2.328,1.861c2.503,0.232,3.666,0.408,4.946,0.872
				c4.887,1.687,8.029,5.004,9.018,9.833C330.759,168.069,326.978,173.596,320.868,174.76z M311.095,147.764
				c1.57-0.174,2.85-0.64,3.49-2.095c0.582-1.395,0.523-2.792-0.523-4.015c-0.757-0.93-1.803-1.397-3.026-1.279
				c-0.291,0-0.523,0.231-0.523,0.464c0,1.28,0,5.004,0,6.4C310.512,147.532,310.803,147.764,311.095,147.764z M323.544,160.97
				c-0.464-1.338-1.338-2.327-2.618-2.909c-0.872-0.407-1.803-0.813-2.735-0.989c-2.21-0.464-4.421-0.407-6.807-0.407
				c-0.406,0-0.64,0.291-0.698,0.64c0,3.956,0.058,7.738,0.174,11.636c0.058,0.349,0.349,0.64,0.698,0.64
				c2.735-0.058,5.352,0.174,7.972-0.234c0.523-0.115,1.047-0.291,1.57-0.464c1.746-0.64,2.677-1.979,2.968-3.725
				C324.301,163.707,324.009,162.31,323.544,160.97z"/>
			<path class="st7" d="M354.031,175.573c-0.234,0-0.814,0-1.048,0c-2.035,0-17.686-0.058-18.501-0.058
				c-0.757,0-0.931-0.173-1.048-0.872c-0.058-0.757-0.115-1.512-0.115-2.269c-0.059-5.759-0.174-29.847-0.234-35.723
				c0-2.676,0.174-2.152,2.211-2.211c1.163-0.058,2.327-0.058,3.49,0c0.699,0,1.222,0.582,1.28,1.222
				c0,2.327,0.291,30.777,0.291,32.464c0,0.118,0,0.176,0,0.291c0.059,0.349,0.349,0.64,0.698,0.64h12.276
				c0.582,0,1.048,0.408,1.048,0.989C354.38,170.338,354.729,175.573,354.031,175.573z"/>
			<path class="st7" d="M378,174.295c0,0.872-0.174,0.989-0.989,1.048c-0.349,0.058-0.64,0.058-0.989,0.058
				c-5.178,0.058-10.356,0.058-15.534,0.115c-0.466,0-0.872,0-1.28-0.058c-0.814-0.058-1.047-0.291-1.106-1.106
				c0-0.408,0-0.814,0-1.221c-0.058-7.505-0.174-15.011-0.232-22.458c-0.059-4.77-0.117-9.542-0.174-14.313
				c0-1.802,0.115-1.861,1.861-1.861c4.538-0.059,14.662,0,16.931,0c0.232,0,0.466,0.174,0.466,0.408
				c0.058,1.104,0.115,3.431,0.115,4.13c-0.058,0.523-0.464,0.931-0.989,0.989c-2.095,0.059-11.519,0.232-11.694,0.232
				c0,1.862-0.058,6.285-0.058,11.055c0.232,0,11.868-0.059,12.276-0.059c0.814,0,1.047,0.757,1.047,1.222
				c0,1.395-0.117,2.211-0.117,3.724c0,0.466-0.406,0.814-0.814,0.872c-1.978,0.059-3.898,0-5.818,0.059
				c-2.152,0.058-4.305,0-6.516,0v12.508c1.688,0,6.167-0.115,9.542-0.115c3.432,0,4.015-0.408,4.015,1.453
				C378,172.083,378,173.189,378,174.295z"/>
		</g>
		<g>
			<path class="st0" d="M109.577,177.981c0.469-0.756,0.62-1.552,0.786-2.339c0.296-1.405,0.425-2.834,0.51-4.262
				c0.297-4.942,0.482-9.889,0.636-14.837c0.021-0.662-0.059-1.296-0.233-1.934c-1.15-4.204-1.734-8.474-1.452-12.84
				c0.274-4.247,1.199-8.311,3.404-12.01c0.511-0.858,1.074-1.679,1.736-2.429c2.894-3.283,6.499-4.342,10.715-3.346
				c3.387,0.8,5.999,2.794,8.13,5.479c0.191,0.241,0.375,0.489,0.547,0.714c0.316-0.025,0.272-0.256,0.315-0.419
				c0.087-0.331,0.153-0.667,0.24-0.998c0.499-1.896,1.612-2.681,3.572-2.457c1.454,0.166,2.664,0.83,3.587,1.976
				c0.543,0.674,0.827,1.45,0.863,2.323c0.062,1.502-0.107,2.987-0.307,4.468c-0.606,4.506-1.122,9.019-1.465,13.554
				c-0.198,2.609-0.351,5.219-0.443,7.833c-0.123,3.491,0.062,6.972,0.418,10.445c0.282,2.754,0.553,5.509,1.011,8.242
				c0.397,2.367,0.907,4.706,1.868,6.92c0.405,0.933,0.847,1.852,1.57,2.711c0.653-1.297,0.943-2.598,1.224-3.896
				c0.763-3.532,1.248-7.111,1.678-10.694c0.764-6.366,1.465-12.739,2.19-19.11c0.204-1.794,0.397-3.589,0.601-5.384
				c0.061-0.535,0.011-1.039-0.177-1.555c-1.076-2.945-1.591-6.007-1.878-9.119c-0.267-2.891-0.307-5.787-0.14-8.681
				c0.222-3.838,0.846-7.608,2.198-11.229c0.228-0.611,0.485-1.216,0.785-1.795c1.137-2.191,3.139-2.804,5.34-1.661
				c1.847,0.959,2.58,2.404,2.211,4.474c-0.344,1.93-0.78,3.844-1.096,5.777c-0.602,3.675-0.642,7.376-0.378,11.085
				c0.28,3.93,1.048,7.771,2.139,11.547c0.642,2.22,1.632,4.306,2.671,6.361c0.48,0.95,1.187,1.756,1.965,2.479
				c1.007,0.934,1.79,0.994,2.956,0.291c0.73-0.441,1.317-1.041,1.854-1.693c1.059-1.284,1.837-2.734,2.518-4.244
				c1.533-3.401,2.41-6.996,3.164-10.628c1.109-5.343,1.76-10.748,2.182-16.184c0.063-0.808,0.072-1.618-0.016-2.426
				c-0.172-1.577,0.646-2.56,2.238-2.69c2.197-0.179,4.433,1.173,5.497,3.336c0.568,1.155,0.89,2.39,1.121,3.648
				c0.592,3.217,0.934,6.469,1.298,9.716c0.402,3.589,0.802,7.179,1.051,10.783c0.275,3.978,0.458,7.957,0.336,11.948
				c-0.1,3.272-0.342,6.527-0.808,9.767c-0.523,3.633-1.497,7.129-3.189,10.396c-1.776,3.429-4.179,6.334-7.386,8.527
				c-2.395,1.638-5.033,2.576-7.956,2.616c-4.186,0.058-7.189-1.969-9.238-5.461c-1.128-1.922-1.665-4.074-1.825-6.318
				c-0.095-1.34-0.137-2.674-0.046-4.011c0.07-1.015,0.718-1.553,1.743-1.491c0.817,0.049,1.253,0.438,1.347,1.258
				c0.134,1.175,0.253,2.351,0.358,3.529c0.114,1.278,0.383,2.519,0.803,3.731c0.58,1.678,1.624,2.994,3.062,4.018
				c2.251,1.603,4.514,1.487,6.534-0.393c1.714-1.595,2.929-3.539,3.844-5.683c1.108-2.596,1.694-5.331,2.222-8.085
				c1.4-7.297,1.523-14.664,1.197-22.054c-0.136-3.08-0.315-6.158-0.482-9.237c-0.02-0.36,0.038-0.744-0.26-1.148
				c-0.346,1.434-0.671,2.79-1.003,4.146c-0.636,2.602-1.355,5.179-2.247,7.706c-0.665,1.886-1.503,3.689-2.584,5.375
				c-0.642,1.001-1.373,1.929-2.256,2.728c-2.433,2.202-5.252,2.856-8.414,2.049c-1.623-0.414-3.081-1.174-4.36-2.257
				c-1.43-1.212-2.733-2.547-3.813-4.089c-0.121-0.172-0.192-0.395-0.476-0.485c-0.211,0.395-0.147,0.836-0.188,1.253
				c-0.561,5.699-1.112,11.4-1.677,17.099c-0.356,3.591-0.587,7.194-1.094,10.769c-0.214,1.511-0.476,3.013-0.923,4.476
				c-0.127,0.416-0.269,0.829-0.421,1.237c-1.48,3.982-5.555,4.957-8.813,2.506c-1.057-0.795-1.92-1.772-2.67-2.853
				c-2.533-3.65-4.257-7.659-5.297-11.971c-0.682-2.825-0.977-5.7-1.155-8.594c-0.107-1.742-0.164-3.484-0.175-5.228
				c-0.001-0.111,0.041-0.242-0.106-0.338c-0.288,0.183-0.293,0.525-0.401,0.796c-0.403,1.013-0.817,2.02-1.32,2.988
				c-0.374,0.72-0.79,1.413-1.282,2.059c-2.148,2.816-5.334,3.625-8.572,2.172c-1.837-0.824-3.262-2.151-4.498-3.707
				c-0.189-0.237-0.298-0.55-0.616-0.696c-0.251,0.227-0.137,0.524-0.141,0.781c-0.046,2.958-0.07,5.917-0.266,8.87
				c-0.11,1.646-0.277,3.289-0.718,4.888c-0.183,0.663-0.421,1.303-0.766,1.9c-1.216,2.1-3.591,2.964-5.88,2.139
				c-1.167-0.421-2.134-1.146-3.004-2.01c-1.177-1.169-2.172-2.485-3.051-3.887c-4.186-6.68-6.994-13.873-8.094-21.708
				c-0.381-2.714-0.685-5.435-0.889-8.168c-0.011-0.147,0.021-0.31-0.123-0.436c-0.273-0.055-0.455,0.15-0.658,0.272
				c-3.339,2.001-6.665,4.022-9.931,6.141c-2.459,1.596-4.805,3.344-7.037,5.244c-0.659,0.561-0.711,0.465-0.206,1.265
				c1.848,2.924,3.594,5.905,4.956,9.094c1.144,2.677,2.021,5.428,2.156,8.363c0.152,3.303-0.691,6.296-2.907,8.817
				c-3.485,3.964-9.349,5.169-13.772,2.746c-3.724-2.04-5.55-5.324-5.801-9.514c-0.156-2.604,0.445-5.071,1.455-7.451
				c1.335-3.147,3.145-6.008,5.285-8.665c0.637-0.791,0.634-0.609,0.097-1.512c-2.276-3.827-4.661-7.589-6.812-11.489
				c-1.982-3.594-3.487-7.365-4.181-11.434c-0.79-4.63-0.434-9.121,1.597-13.41c0.292-0.618,0.628-1.218,0.985-1.801
				c3.258-5.322,9.123-6.675,14.051-5.053c3.466,1.141,6.088,3.32,7.921,6.461c0.514,0.881,0.273,0.903,1.414,0.514
				c2.994-1.022,6.095-1.506,9.224-1.858c0.464-0.052,0.928-0.123,1.393-0.142c0.751-0.03,0.722-0.071,0.757-0.84
				c0.106-2.333,0.201-4.667,0.339-6.999c0.082-1.397,0.187-2.797,0.531-4.163c0.083-0.331,0.183-0.66,0.305-0.978
				c0.468-1.222,1.4-1.785,2.672-1.816c2.051-0.05,3.924,1.375,4.486,3.421c0.248,0.903,0.354,1.832,0.39,2.769
				c0.098,2.585,0.076,5.17,0.051,7.755c-0.006,0.605-0.11,0.808,0.728,0.854c1.242,0.069,2.481,0.207,3.72,0.329
				c0.656,0.064,1.29,0.221,1.854,0.582c0.385,0.246,0.681,0.572,0.658,1.058c-0.025,0.53-0.382,0.832-0.835,1.029
				c-0.528,0.23-1.092,0.26-1.651,0.205c-0.991-0.097-1.978-0.236-2.967-0.35c-0.371-0.043-0.744-0.067-1.116-0.096
				c-0.266-0.021-0.412,0.095-0.413,0.372c0,0.156-0.004,0.311-0.005,0.467c-0.026,5.857,0.105,11.711,0.416,17.56
				c0.231,4.356,0.801,8.677,1.504,12.981c0.496,3.039,0.916,6.09,1.435,9.125c0.562,3.288,1.331,6.525,2.811,9.548
				c0.522,1.067,1.111,2.09,1.892,2.991C108.816,177.416,109.083,177.769,109.577,177.981z M71.76,154.106
				c0.085-0.041,0.149-0.057,0.195-0.096c0.192-0.159,0.379-0.323,0.567-0.487c3.343-2.915,6.91-5.513,10.801-7.658
				c2.563-1.413,5.093-2.885,7.656-4.298c0.503-0.277,0.706-0.585,0.667-1.166c-0.083-1.211-0.118-2.427-0.13-3.641
				c-0.042-4.049-0.091-8.098,0.076-12.146c0.027-0.659,0.016-0.654-0.679-0.624c-1.309,0.056-2.604,0.234-3.894,0.447
				c-2.06,0.339-4.095,0.781-6.063,1.497c-0.445,0.162-0.652,0.348-0.519,0.874c0.403,1.607,0.123,3.231-0.039,4.833
				c-0.169,1.668-0.829,3.196-1.91,4.497c-1.561,1.88-3.556,2.781-6.02,2.501c-1.94-0.221-3.163-1.427-3.452-3.349
				c-0.207-1.378,0.123-2.659,0.697-3.89c0.793-1.7,2.057-3.024,3.427-4.269c0.375-0.34,1.071-0.5,1.048-1.075
				c-0.021-0.5-0.421-0.957-0.728-1.388c-0.252-0.354-0.521-0.702-0.825-1.011c-0.896-0.912-2-1.226-3.249-1.02
				c-1.202,0.199-2.233,0.754-3.113,1.591c-0.824,0.784-1.434,1.717-1.91,2.744c-1.395,3.01-1.654,6.165-1.182,9.407
				c0.412,2.833,1.394,5.48,2.677,8.025c1.658,3.288,3.678,6.358,5.668,9.446C71.588,153.948,71.685,154.025,71.76,154.106z
				 M125.819,130.325c-0.768-0.008-1.363,0.232-1.916,0.609c-0.969,0.662-1.707,1.536-2.323,2.521
				c-1.172,1.873-1.861,3.926-2.246,6.087c-0.667,3.747-0.42,7.505-0.074,11.257c0.249,2.699,0.899,5.333,1.438,7.982
				c0.267,1.312,0.651,2.594,1.292,3.784c0.313,0.58,0.679,1.119,1.209,1.523c0.53,0.405,0.805,0.421,1.352,0.055
				c0.604-0.404,1.062-0.956,1.474-1.545c0.806-1.153,1.465-2.392,1.972-3.698c2.072-5.344,3.853-10.777,4.532-16.5
				c0.144-1.216,0.612-2.442,0.214-3.683c-0.38-1.184-0.849-2.34-1.434-3.441c-0.796-1.5-1.822-2.822-3.14-3.901
				C127.462,130.796,126.678,130.361,125.819,130.325z M67.421,163.284c-0.111,0.074-0.175,0.097-0.21,0.142
				c-2.116,2.69-3.814,5.61-4.784,8.911c-0.54,1.837-0.764,3.707-0.473,5.627c0.481,3.181,2.71,5.773,5.659,6.524
				c2.724,0.694,4.963-0.896,5.191-3.699c0.068-0.839,0.056-1.683-0.09-2.514c-0.878-4.999-2.433-9.772-4.813-14.265
				C67.773,163.767,67.686,163.492,67.421,163.284z M72.925,135.107c1.36-1.525,1.69-3.299,1.943-5.224
				C73.269,131.1,72.366,133.477,72.925,135.107z"/>
		</g>
	</g>
	<g>
		<g>
			<path class="st7" d="M169.044,314.8c-0.234,0.117-0.408,0.232-0.582,0.232c-4.596,0.699-8.319-0.813-11.111-4.653
				c-1.746-2.443-4.772-11.287-5.295-12.8c-0.117-0.466-0.291-0.814-0.466-1.455c-0.814,0.989-1.629,1.744-1.571,3.141
				c0.059,4.946,0,9.542,0,14.486c0,0.816-0.349,1.398-1.221,1.398c-1.571,0-2.618,0.058-4.189,0.058
				c-0.64,0-1.163-0.525-1.163-1.165c-0.059-2.384-0.234-38.224-0.234-39.271c0-0.64,0.349-0.755,1.163-0.755
				c1.92,0,3.317,0.115,4.655,0.115c0.699,0,0.989,0.115,0.989,0.64c0.059,0.698,0.117,9.018,0.117,12.683
				c0.349-0.464,8.959-11.985,9.658-12.916c0.466-0.522,0.989-0.464,1.861-0.464c1.862,0,2.677,0,4.538,0c0.059,0,0.117,0,0.117,0
				c0.407,0,0.582,0.464,0.407,0.755c-0.115,0.176-0.232,0.349-0.29,0.525c-3.375,4.653-7.041,9.716-10.415,14.369
				c-0.407,0.582-0.466,1.048-0.232,1.687c1.106,3.143,4.712,13.499,5.818,15.244c1.106,1.688,2.735,2.559,4.712,2.735
				c0.466,0.058,0.989,0.115,1.455,0.174c0.872,0.058,0.989,0.117,1.047,0.872C168.927,311.891,168.927,313.346,169.044,314.8z"/>
			<path class="st7" d="M179.226,274.83c0,0.698,0,26.764,0,38.749c0,1.571,0,1.571-1.571,1.629c-1.28,0-2.56,0-3.84,0
				c-0.174,0-0.349,0-0.523,0c-0.523-0.058-0.872-0.466-0.872-0.931c-0.059-13.091-0.117-26.705-0.174-39.562
				c0-0.698,0.581-0.698,0.755-0.698c1.746,0,2.851,0,4.306,0S179.283,273.899,179.226,274.83z"/>
			<path class="st7" d="M206.686,313.811c0,1.221-0.174,1.397-1.395,1.397c-1.629,0-3.2-0.058-4.829,0
				c-0.814,0-1.514-0.466-1.803-1.165c-2.619-6.167-8.262-19.199-8.612-19.49c0,1.514,0.234,18.968,0.176,19.781
				c0,0.698-0.117,0.816-0.814,0.816c-1.862,0.058-3.666,0.058-5.528,0c-0.64,0-0.814-0.234-0.814-1.048
				c-0.058-1.28-0.523-33.977-0.581-38.632c0-0.232,0-0.406,0-0.698c0-0.407,0.349-0.698,0.698-0.755c0.757,0,1.397,0,2.095,0
				c1.163,0,2.327,0,3.491,0c1.221,0,1.279,0.058,1.687,1.162c2.677,6.866,8.553,21.586,8.61,21.586
				c0-0.291-0.232-21.352-0.232-22.05c0.058-0.467,0.232-0.757,0.755-0.757c1.862,0,3.783,0,5.644,0c0.814,0,0.874,0.117,0.989,0.93
				c0.059,0.408,0.466,34.211,0.466,38.283C206.686,313.346,206.745,313.579,206.686,313.811z"/>
			<path class="st7" d="M234.495,298.103c-0.523,3.375-2.035,6.284-4.304,8.842c-3.666,3.957-8.087,6.634-13.324,7.914
				c-1.455,0.349-2.967,0.291-4.421,0.406c-0.814,0-0.931-0.174-0.989-1.106c-0.058-0.581-0.058-1.163-0.058-1.746
				c-0.117-8.609-0.234-17.278-0.35-25.89c0-3.258-0.058-6.573-0.115-9.831c0-0.582,0-1.165,0.115-1.746
				c0.059-0.814,0.234-0.93,1.048-0.93c0.64-0.059,1.28,0,1.978,0c6.575,0.231,11.927,3.082,16.232,8.028
				C234.32,286.7,235.484,292.11,234.495,298.103z M228.328,288.793c-1.978-4.421-5.759-6.631-10.123-8.436
				c-0.234-0.058-0.525,0.117-0.525,0.349c0.117,9.135,0.234,18.152,0.291,27.113c0,0.234,0.234,0.406,0.466,0.349
				c0.291-0.058,0.582-0.174,0.757-0.291c2.269-1.047,4.304-2.384,6.167-4.013C230.131,299.732,230.423,293.449,228.328,288.793z"/>
		</g>
		<path class="st0" d="M67.784,315.792c0.111-0.806-0.045-1.516-0.049-2.229c-0.051-11.234,2.306-21.869,7.933-31.678
			c1.197-2.086,2.579-4.04,4.487-5.569c2.355-1.888,4.997-2.266,7.838-1.498c2.374,0.642,4.226,2.073,5.7,4.013
			c1.609,2.117,2.567,4.541,3.304,7.065c0.419,1.435,0.741,2.894,0.968,4.372c0.113,0.734,0.124,0.755,0.799,0.584
			c0.655-0.166,1.524-0.028,1.913-0.553c0.356-0.48,0.082-1.267,0.074-1.918c-0.047-3.896,0.064-7.785,0.576-11.652
			c0.48-3.623,1.283-7.164,2.771-10.524c0.544-1.228,1.191-2.395,2.016-3.461c2.588-3.347,6.385-3.862,9.64-2.71
			c2.871,1.016,5.027,2.941,6.493,5.618c1.346,2.458,2.155,5.1,2.566,7.86c0.497,3.341,0.257,6.642-0.694,9.887
			c-1.077,3.674-3.415,6.142-7.04,7.395c-1.832,0.633-3.719,1.01-5.629,1.305c-1.592,0.246-1.322,0.064-1.206,1.504
			c0.513,6.356,1.807,12.56,3.621,18.662c0.595,2.003,1.351,3.945,2.404,5.761c0.69,1.191,1.471,2.315,2.476,3.263
			c1.629,1.536,2.779,1.359,3.823-0.607c0.927-1.747,1.511-3.625,1.848-5.562c0.502-2.882,1.236-5.719,1.64-8.619
			c0.06-0.431,0.154-0.829-0.047-1.271c-0.208-0.457,0.041-0.851,0.421-1.13c0.598-0.439,1.251-0.527,1.942-0.236
			c0.673,0.283,1.017,0.792,1.033,1.522c0.004,0.187,0.021,0.374,0.017,0.56c-0.095,4.253-0.632,8.438-1.931,12.504
			c-0.467,1.463-1.091,2.849-2.028,4.078c-1.224,1.604-2.798,2.625-4.822,2.917c-1.478,0.214-2.849-0.115-4.153-0.776
			c-1.767-0.895-3.297-2.119-4.715-3.487c-1.966-1.896-3.535-4.096-4.901-6.451c-2.702-4.657-4.534-9.612-5.203-14.979
			c-0.219-1.761-0.462-3.518-0.596-5.288c-0.062-0.826-0.096-0.836-0.9-0.665c-0.365,0.077-0.727,0.171-1.087,0.27
			c-0.645,0.178-0.645,0.182-0.617,0.888c0.188,4.754-0.202,9.46-1.271,14.096c-0.668,2.896-1.661,5.676-3.363,8.154
			c-1.877,2.733-4.299,4.732-7.556,5.609c-1.251,0.337-2.522,0.442-3.796,0.254c-2.168-0.319-3.808-1.46-4.915-3.352
			c-0.947-1.619-1.375-3.392-1.502-5.247c-0.225-3.304,0.591-6.356,2.237-9.206c2.062-3.571,4.918-6.406,8.208-8.833
			c0.726-0.535,1.487-1.025,2.253-1.502c0.33-0.205,0.473-0.431,0.454-0.827c-0.185-3.816-0.725-7.559-2.256-11.101
			c-0.322-0.746-0.702-1.459-1.185-2.113c-0.55-0.747-0.681-0.786-1.565-0.41c-1.132,0.482-2.103,1.206-2.985,2.053
			c-1.106,1.062-2.061,2.25-2.898,3.532c-2.687,4.112-4.459,8.61-5.59,13.371c-0.749,3.155-1.167,6.356-1.371,9.596
			c-0.224,3.557,0.018,7.086,0.359,10.619c0.072,0.742,0.083,1.492,0.087,2.238c0.006,1.057-0.555,1.753-1.485,2.173
			c-1.019,0.46-2.051,0.431-3.089,0.046c-1.015-0.375-1.849-1.018-2.63-1.742c-1.752-1.625-3.138-3.541-4.353-5.58
			c-2.58-4.327-4.21-9.011-5.09-13.958c-1.046-5.882-1.339-11.819-1.078-17.775c0.273-6.225,0.896-12.418,2.191-18.526
			c0.459-2.163,1.037-4.294,1.843-6.358c0.386-0.989,0.833-1.946,1.48-2.797c1.506-1.98,4.027-2.168,5.912-0.873
			c0.909,0.624,1.371,1.499,1.418,2.602c0.042,1.012-0.193,1.987-0.441,2.946c-1.634,6.322-2.493,12.757-2.975,19.258
			c-0.372,5.012-0.462,10.022,0.07,15.02c0.669,6.291,1.688,12.522,3.729,18.541C67.414,315.151,67.448,315.475,67.784,315.792z
			 M109.96,284.785c0,1.183-0.007,2.367,0.002,3.55c0.007,0.89,0.017,0.891,0.95,0.786c1.332-0.151,2.64-0.413,3.937-0.757
			c2.915-0.774,4.71-2.643,5.539-5.512c0.676-2.338,0.829-4.714,0.534-7.118c-0.347-2.83-1.269-5.448-2.993-7.75
			c-0.619-0.827-1.338-1.555-2.165-2.18c-0.403-0.305-0.715-0.257-1.051,0.097c-0.497,0.525-0.894,1.117-1.242,1.745
			c-0.835,1.506-1.406,3.116-1.878,4.766C110.438,276.457,110.108,280.608,109.96,284.785z M89.16,298.471
			c-3.237,2.266-5.998,4.733-7.789,8.125c-0.925,1.751-1.54,3.597-1.608,5.6c-0.059,1.742,0.218,3.411,1.064,4.954
			c0.392,0.716,0.877,1.358,1.582,1.806c0.499,0.317,0.988,0.322,1.487,0.002c0.452-0.29,0.82-0.662,1.145-1.085
			c0.854-1.109,1.299-2.408,1.66-3.728c1.174-4.297,2.029-8.657,2.423-13.098C89.194,300.253,89.271,299.448,89.16,298.471z"/>
	</g>
	<g>
		<g>
			<path class="st7" d="M99.154,205.131c-0.757,3.607-8.378,38.631-8.495,39.213c-0.174,0.698-0.989,0.872-1.571,0.931
				c-1.338,0.115-2.618-0.059-4.013,0c-0.64,0-1.106-0.349-1.28-1.048c-0.174-0.872-5.877-24.493-6.052-24.959
				c-0.115,0.466-5.701,25.191-5.759,25.425c-0.117,0.407-0.349,0.64-0.757,0.64c-1.571,0-3.141,0-4.712-0.058
				c-0.931,0-1.397-0.582-1.629-1.456c-1.338-4.829-10.705-38.048-10.822-38.748c-0.174-0.698,0-0.872,0.64-0.989
				c0.466,0,0.931,0,1.397,0c1.163,0,2.269,0,3.432,0s1.28,0.059,1.512,1.163c0.814,3.143,6.924,25.657,7.098,26.182
				c0.117-0.525,6.633-26.356,6.69-26.588c0.117-0.408,0.35-0.64,0.757-0.64c1.571,0,3.141-0.058,4.712-0.058
				c0.582,0,0.699,0.349,0.814,0.813c0.408,2.154,5.644,23.564,6.226,25.367c0.115-0.232,5.468-24.785,5.527-25.425
				c0.117-0.523,0.349-0.814,0.931-0.814c1.395-0.059,3.141,0.059,4.538,0.059C99.154,204.142,99.329,204.315,99.154,205.131z"/>
			<path class="st7" d="M130.455,234.22c-0.989,3.608-2.967,6.575-5.993,8.786c-2.035,1.512-4.304,2.327-6.807,2.384
				c-7.214,0.176-12.508-2.967-16-9.25c-1.338-2.443-1.746-5.119-2.035-7.796c-0.174-0.931-0.174-1.861-0.234-2.56
				c0.174-4.072,0.466-7.855,1.92-11.404c1.338-3.258,3.375-5.818,6.109-7.911c1.687-1.28,3.607-1.805,5.644-2.095
				c4.887-0.757,8.727,1.338,12.16,4.538c2.327,2.269,3.898,5.061,4.887,8.145C131.909,222.701,132.026,228.461,130.455,234.22z
				 M125.625,223.398c-0.115-1.047-0.29-2.501-0.581-3.956c-0.699-3.549-2.503-6.458-5.644-8.436
				c-3.258-2.095-7.97-1.222-10.239,1.92c-1.048,1.395-1.805,2.967-2.328,4.653c-0.93,3.258-1.221,6.634-1.047,10.007
				c0.174,2.445,0.814,4.829,1.92,7.041c1.978,3.956,6.167,5.993,10.239,4.887c2.676-0.757,4.538-2.443,5.701-4.887
				c1.28-2.794,1.862-5.703,2.037-9.367C125.684,224.621,125.684,224.038,125.625,223.398z"/>
			<path class="st7" d="M159.66,244.168c0,0.758-0.234,1.048-1.048,1.107c-0.698,0.058-1.455,0.058-2.152-0.059
				c-3.141-0.581-5.644-2.21-7.738-4.479c-2.269-2.503-3.781-5.818-4.596-9.076c-0.058-0.234-0.174-0.467-0.232-0.758h-1.571
				c-0.059,0.931,0.117,12.684,0.058,13.556c-0.058,0.525-0.349,0.874-0.931,0.874c-0.464,0-0.872,0.058-1.338,0.058
				c-0.931-0.058-1.92-0.058-2.909-0.115c-0.174,0-0.291,0-0.466,0c-0.523-0.059-0.989-0.467-0.989-0.989
				c-0.058-0.582-0.64-38.983-0.64-39.215c0-0.466,0.234-0.698,0.64-0.757c0.349-0.058,0.699-0.115,1.048-0.173
				c4.247-0.234,8.377,0.058,12.508,0.872c3.607,0.698,5.993,2.909,7.447,6.108c1.512,3.258,1.803,6.749,1.106,10.241
				c-0.234,1.163-0.757,2.327-1.28,3.373c-0.757,1.688-2.037,2.909-3.607,3.84c-0.757,0.349-1.514,0.757-2.328,1.222
				c0.059,1.338,0.408,3.024,0.989,4.189c1.339,2.501,3.2,4.247,6.109,4.77c1.746,0.35,1.571,0.059,1.687,1.92
				C159.544,241.842,159.603,243.006,159.66,244.168z M152.853,220.316c0.581-1.514,0.523-3.085,0.291-4.714
				c-0.234-1.455-0.989-2.618-2.095-3.607c-2.503-2.154-5.527-2.386-8.727-2.211v15.185c2.269,0.117,4.421,0,6.458-0.698
				C150.759,223.632,152.156,222.352,152.853,220.316z"/>
			<path class="st7" d="M189.215,244.984c-0.234,0.115-0.408,0.232-0.582,0.232c-4.596,0.699-8.319-0.814-11.111-4.655
				c-1.746-2.442-4.772-11.287-5.295-12.798c-0.117-0.467-0.291-0.816-0.466-1.456c-0.814,0.989-1.629,1.746-1.571,3.143
				c0.059,4.945,0,9.54,0,14.486c0,0.814-0.349,1.397-1.221,1.397c-1.571,0-2.618,0.058-4.189,0.058
				c-0.64,0-1.163-0.523-1.163-1.163c-0.059-2.386-0.234-38.224-0.234-39.272c0-0.64,0.349-0.755,1.163-0.755
				c1.92,0,3.317,0.115,4.655,0.115c0.699,0,0.989,0.117,0.989,0.64c0.059,0.699,0.117,9.018,0.117,12.684
				c0.349-0.466,8.959-11.985,9.658-12.916c0.466-0.523,0.989-0.466,1.861-0.466c1.863,0,2.677,0,4.538,0c0.059,0,0.117,0,0.117,0
				c0.407,0,0.582,0.466,0.407,0.757c-0.115,0.174-0.232,0.349-0.29,0.523c-3.375,4.655-7.041,9.716-10.415,14.371
				c-0.407,0.581-0.466,1.048-0.232,1.687c1.106,3.141,4.712,13.497,5.818,15.244c1.106,1.687,2.735,2.559,4.712,2.733
				c0.466,0.058,0.989,0.117,1.455,0.176c0.872,0.058,0.989,0.115,1.047,0.872C189.098,242.075,189.098,243.528,189.215,244.984z"/>
		</g>
		<g>
			<path class="st0" d="M271.478,212.48c-0.085,0.281,0.116,0.516,0.215,0.764c2.366,5.893,3.936,11.992,4.825,18.277
				c0.726,5.131,1.015,10.287,0.848,15.459c-0.14,4.329-0.513,8.642-1.812,12.815c-0.521,1.674-1.197,3.277-2.285,4.673
				c-1.124,1.441-2.54,2.385-4.419,2.461c-1.752,0.071-3.212-0.638-4.477-1.79c-1.137-1.036-2.066-2.246-2.815-3.587
				c-1.437-2.572-2.435-5.296-3.032-8.194c-0.942-4.575-1.281-9.178-0.97-13.834c0.035-0.528,0.025-1.058,0.032-1.588
				c0.001-0.057-0.026-0.114-0.053-0.221c-0.253,0.148-0.282,0.404-0.367,0.62c-0.777,1.969-1.483,3.966-2.402,5.876
				c-0.623,1.295-1.321,2.541-2.308,3.605c-1.024,1.104-2.284,1.726-3.784,1.787c-1.28,0.052-2.455-0.343-3.533-1.026
				c-1.12-0.71-2.028-1.641-2.817-2.699c-0.199-0.267-0.32-0.604-0.745-0.847c-0.076,0.651-0.154,1.248-0.213,1.847
				c-0.407,4.152-0.868,8.298-1.508,12.422c-0.148,0.955-0.353,1.898-0.722,2.796c-0.86,2.098-2.767,3.103-4.98,2.618
				c-1.41-0.309-2.585-1.049-3.62-2.031c-1.164-1.104-2.068-2.404-2.848-3.797c-1.785-3.187-2.822-6.634-3.523-10.193
				c-0.816-4.144-1.105-8.323-0.817-12.542c0.261-3.819,0.508-7.639,0.723-11.461c0.072-1.273,0.032-2.553,0.029-3.83
				c-0.001-0.234,0.065-0.505-0.235-0.717c-0.51,0.391-0.92,0.893-1.313,1.409c-1.723,2.263-2.807,4.839-3.615,7.537
				c-0.788,2.633-1.216,5.327-1.376,8.075c-0.171,2.927-0.129,5.849-0.016,8.774c0.068,1.777-0.017,3.547-0.298,5.307
				c-0.507,3.185-3.279,3.984-5.378,3.556c-1.32-0.269-2.428-0.943-3.432-1.81c-1.382-1.192-2.485-2.611-3.421-4.172
				c-2.529-4.216-4.113-8.777-4.988-13.599c-0.997-5.492-1.025-11.018-0.611-16.565c0.436-5.852,1.401-11.613,2.868-17.291
				c0.6-2.32,1.257-4.626,2.248-6.819c0.424-0.939,0.897-1.851,1.581-2.633c1.564-1.788,4.376-1.333,5.291,0.863
				c0.572,1.374,0.483,2.812,0.311,4.238c-0.396,3.276-1.122,6.496-1.68,9.745c-0.95,5.529-1.687,11.087-1.704,16.703
				c-0.02,6.649,0.54,13.243,2.365,19.678c0.588,2.074,1.391,4.061,2.376,5.976c0.15,0.292,0.235,0.645,0.685,0.874
				c0.151-0.961,0.241-1.877,0.253-2.802c0.041-3.083-0.217-6.163-0.115-9.247c0.183-5.518,1.057-10.895,3.36-15.966
				c1.047-2.306,2.272-4.503,4.057-6.342c1.428-1.471,3.143-2.225,5.204-2.034c2.476,0.23,4.353,1.414,5.48,3.663
				c0.737,1.472,1.013,3.075,1.1,4.698c0.185,3.427-0.026,6.846-0.279,10.264c-0.172,2.328-0.375,4.653-0.599,6.976
				c-0.26,2.697-0.488,5.397-0.499,8.109c-0.012,3.148,0.078,6.291,0.838,9.369c0.415,1.68,1.09,3.247,2.25,4.563
				c0.322,0.365,0.656,0.934,1.161,0.811c0.434-0.106,0.511-0.741,0.652-1.176c0.503-1.547,0.708-3.158,0.937-4.759
				c0.745-5.21,1.343-10.437,1.768-15.683c0.046-0.57-0.028-1.104-0.149-1.658c-1.236-5.636-0.822-11.083,2.005-16.21
				c1.411-2.56,3.422-4.533,6.186-5.58c4.204-1.593,8.129-1.004,11.714,1.734c0.198,0.151,0.389,0.313,0.571,0.482
				c0.193,0.18,0.339,0.155,0.564,0.008c2.98-1.952,6.711-0.317,7.348,3.202c0.202,1.116,0.162,2.239,0.089,3.354
				c-0.168,2.578-0.389,5.152-0.592,7.727c-0.159,2.017-0.282,4.037-0.321,6.06c-0.075,3.83-0.252,7.662-0.114,11.491
				c0.099,2.733,0.286,5.472,0.879,8.156c0.283,1.279,0.656,2.533,1.373,3.652c0.71,1.108,0.953,1.119,1.68,0.049
				c0.868-1.278,1.371-2.72,1.79-4.191c0.693-2.434,1.049-4.929,1.294-7.441c0.363-3.729,0.381-7.469,0.155-11.2
				c-0.403-6.673-1.594-13.213-3.567-19.607c-0.799-2.589-1.726-5.131-2.773-7.631c-0.216-0.515-0.48-0.738-1.08-0.78
				c-5.061-0.357-10.124-0.725-15.123-1.647c-5.064-0.933-10.021-2.24-14.751-4.312c-2.006-0.879-3.884-1.976-5.535-3.433
				c-0.989-0.873-1.855-1.849-2.438-3.043c-1.044-2.136-0.923-4.218,0.373-6.21c0.978-1.502,2.36-2.556,3.941-3.351
				c2.752-1.385,5.69-1.952,8.757-1.961c5.349-0.016,10.151,1.684,14.542,4.64c4.22,2.84,7.602,6.509,10.419,10.719
				c1.126,1.684,2.162,3.424,3.044,5.248c0.252,0.522,0.582,0.71,1.152,0.721c2.242,0.041,4.482,0.136,6.724,0.196
				c1.995,0.054,3.983-0.023,5.964-0.301c1.177-0.165,2.36-0.165,3.519,0.184c2.153,0.649,3.626,1.994,4.283,4.175
				c0.381,1.263,0.522,2.56,0.535,3.873c0.028,2.836-0.195,5.663-0.369,8.49c-0.473,7.71-0.789,15.424-0.704,23.151
				c0.02,1.805,0.058,3.61,0.072,5.414c0.022,2.807-4.014,5.487-6.988,3.52c-1.342-0.887-2.024-2.006-2.121-3.603
				c-0.303-5.011-0.186-10.025-0.126-15.037c0.056-4.733,0.376-9.455,0.673-14.178c0.153-2.423,0.259-4.85,0.364-7.276
				c0.053-1.216-0.058-2.422-0.257-3.627c-0.098-0.593-0.413-0.851-0.942-0.997c-1.57-0.433-3.18-0.602-4.793-0.732
				c-1.582-0.127-3.169-0.204-4.753-0.303C271.715,212.364,271.591,212.362,271.478,212.48z M265.491,209.088
				c0.092-0.379-0.124-0.597-0.25-0.833c-1.116-2.091-2.37-4.096-3.814-5.977c-2.486-3.239-5.344-6.086-8.859-8.204
				c-3.828-2.306-7.942-3.544-12.459-3.12c-1.911,0.18-3.73,0.684-5.405,1.646c-0.987,0.566-1.836,1.288-2.437,2.267
				c-0.803,1.307-0.842,2.638-0.084,3.981c0.434,0.769,1.021,1.409,1.679,1.99c1.489,1.315,3.212,2.242,5.029,3.003
				c3.138,1.314,6.402,2.229,9.707,3.007c4.038,0.951,8.143,1.468,12.265,1.859C262.405,208.852,263.952,208.962,265.491,209.088z
				 M246.729,236.991c0,0.685-0.046,1.374,0.009,2.054c0.159,1.956,0.379,3.904,1.158,5.736c0.245,0.576,0.526,1.13,0.955,1.594
				c0.447,0.483,0.588,0.498,1.09,0.102c0.495-0.391,0.867-0.892,1.214-1.411c0.747-1.117,1.339-2.317,1.862-3.551
				c2.093-4.936,3.576-10.084,5.263-15.161c0.101-0.303,0.137-0.591-0.066-0.888c-0.999-1.455-2.174-2.722-3.738-3.589
				c-0.686-0.38-1.365-0.353-2.054-0.009c-0.825,0.413-1.483,1.02-2.05,1.736c-0.86,1.085-1.467,2.308-1.943,3.6
				C247.267,230.363,246.709,233.628,246.729,236.991z"/>
			<path class="st0" d="M318.996,246.093c-0.552,1.788-1.061,3.483-1.6,5.168c-0.456,1.425-1.004,2.814-1.792,4.096
				c-1.226,1.993-2.928,3.287-5.3,3.57c-1.662,0.198-3.223-0.202-4.7-0.924c-2.535-1.239-4.437-3.196-5.969-5.513
				c-2.131-3.222-3.446-6.79-3.857-10.612c-0.751-6.986-0.074-13.856,2.181-20.536c0.64-1.895,1.532-3.677,2.687-5.317
				c3.989-5.661,11.012-6.741,16.43-3.819c0.295,0.159,0.555,0.401,1.016,0.461c0.073-0.922,0.151-1.831,0.217-2.742
				c0.379-5.249,0.9-10.48,1.896-15.654c0.524-2.723,1.186-5.409,2.248-7.982c0.5-1.213,1.1-2.372,1.915-3.408
				c2.852-3.629,7.848-3.335,10.277,0.6c0.935,1.515,1.359,3.198,1.641,4.927c0.555,3.406,0.49,6.824,0.171,10.244
				c-0.389,4.174-1.247,8.241-2.841,12.132c-1.053,2.57-2.401,4.989-3.822,7.37c-0.782,1.31-1.545,2.63-2.339,3.932
				c-0.254,0.416-0.357,0.837-0.351,1.322c0.059,4.235,0.285,8.463,0.519,12.691c0.194,3.513,0.502,7.017,0.827,10.519
				c0.261,2.82,0.572,5.635,0.825,8.456c0.217,2.417,0.399,4.838,0.502,7.264c0.061,1.438-0.662,2.364-1.885,2.943
				c-1.358,0.643-2.77,0.682-4.177,0.158c-1.186-0.442-2.004-1.247-2.241-2.534c-0.365-1.988-0.74-3.976-1.062-5.972
				c-0.531-3.289-0.895-6.599-1.176-9.918C319.212,246.739,319.206,246.456,318.996,246.093z M317.976,227.217
				c-0.025,0-0.051,0-0.076,0c0-2.086-0.001-4.171,0.001-6.257c0-0.374,0.013-0.743-0.241-1.066
				c-0.676-0.86-1.387-1.676-2.348-2.243c-1.232-0.727-2.477-0.737-3.742-0.119c-0.999,0.488-1.793,1.225-2.478,2.089
				c-1.299,1.635-2.12,3.509-2.712,5.49c-0.922,3.085-1.368,6.25-1.554,9.459c-0.266,4.587-0.056,9.148,0.861,13.654
				c0.398,1.956,1.075,3.835,2.266,5.483c0.479,0.662,1.031,1.25,1.734,1.677c0.73,0.443,1.129,0.39,1.739-0.224
				c0.488-0.492,0.836-1.082,1.13-1.704c0.559-1.186,0.972-2.425,1.311-3.688c1.372-5.106,2.668-10.232,4.225-15.287
				c0.13-0.423,0.147-0.85,0.127-1.291C318.124,231.199,318.053,229.208,317.976,227.217z M331.866,186.08
				c-0.366,0.518-0.485,0.969-0.64,1.401c-1.504,4.213-2.221,8.596-2.798,13.008c-0.492,3.763-0.779,7.545-1.044,11.329
				c-0.055,0.787-0.008,1.581-0.008,2.462c0.276-0.221,0.375-0.479,0.503-0.709c0.787-1.413,1.51-2.858,2.162-4.338
				c2.569-5.833,3.663-11.916,3.066-18.277C332.954,189.312,332.641,187.698,331.866,186.08z"/>
		</g>
	</g>
</g>
</svg>
