<?xml version="1.0" encoding="UTF-8" standalone="no"?>
<!-- Created with Inkscape (http://www.inkscape.org/) -->

<svg
   xmlns:dc="http://purl.org/dc/elements/1.1/"
   xmlns:cc="http://creativecommons.org/ns#"
   xmlns:rdf="http://www.w3.org/1999/02/22-rdf-syntax-ns#"
   xmlns:svg="http://www.w3.org/2000/svg"
   xmlns="http://www.w3.org/2000/svg"
   xmlns:sodipodi="http://sodipodi.sourceforge.net/DTD/sodipodi-0.dtd"
   xmlns:inkscape="http://www.inkscape.org/namespaces/inkscape"
   width="210mm"
   height="297mm"
   viewBox="0 0 210 297"
   version="1.1"
   id="svg8"
   inkscape:version="0.92.4 (5da689c313, 2019-01-14)"
   sodipodi:docname="squiggle.svg">
  <defs
     id="defs2" />
  <sodipodi:namedview
     id="base"
     pagecolor="#ffffff"
     bordercolor="#666666"
     borderopacity="1.0"
     inkscape:pageopacity="0.0"
     inkscape:pageshadow="2"
     inkscape:zoom="0.35"
     inkscape:cx="400"
     inkscape:cy="560"
     inkscape:document-units="mm"
     inkscape:current-layer="layer1"
     showgrid="false"
     inkscape:window-width="1366"
     inkscape:window-height="705"
     inkscape:window-x="-8"
     inkscape:window-y="-8"
     inkscape:window-maximized="1" />
  <metadata
     id="metadata5">
    <rdf:RDF>
      <cc:Work
         rdf:about="">
        <dc:format>image/svg+xml</dc:format>
        <dc:type
           rdf:resource="http://purl.org/dc/dcmitype/StillImage" />
        <dc:title></dc:title>
      </cc:Work>
    </rdf:RDF>
  </metadata>
  <g
     inkscape:label="Layer 1"
     inkscape:groupmode="layer"
     id="layer1">
    <path
       style="fill:none;stroke:#000000;stroke-width:0.26458332px;stroke-linecap:butt;stroke-linejoin:miter;stroke-opacity:1"
       d="m 40.065475,28.636904 c -1.356733,0.956212 -3.101395,-0.478107 -4.535715,0 -0.338071,0.112692 -0.425079,0.623605 -0.755951,0.755952 -0.964647,0.38586 -2.13291,0.221414 -3.023809,0.755954 -0.483159,0.289893 -0.403966,1.07192 -0.755952,1.511903 -3.613973,4.517467 -1.290304,-0.240239 -5.291667,6.047621 -0.907514,1.426091 -1.511905,3.023809 -2.267857,4.535713 -1.231069,2.462138 -3.753388,7.28482 -4.535715,9.827381 -0.450763,1.464979 -0.42345,3.039454 -0.755952,4.535715 -0.17286,0.777867 -0.624952,1.481855 -0.755952,2.267858 -0.124278,0.745664 0,1.511903 0,2.267854 0,0.755955 0,1.511906 0,2.267858 0,0.755954 -0.148255,1.526585 0,2.267857 0.110502,0.552511 0.503968,1.007936 0.755952,1.511906 0.251984,0.503968 0.41788,1.061141 0.755952,1.511904 2.022188,2.696252 6.138011,4.790439 9.07143,6.04762 5.500907,2.35753 11.395509,4.074838 17.386903,4.535713 2.76366,0.21259 5.54365,0 8.315476,0 1.007938,0 2.015873,0 3.023809,0 0.755954,0 1.519504,0.106907 2.267857,0 2.356199,-0.336601 4.688554,-1.210347 6.803573,-2.267858 0.503967,-0.251984 1.06114,-0.41788 1.511903,-0.755951 0.570177,-0.427631 1.007938,-1.007936 1.511906,-1.511904 1.981472,-1.981472 2.464186,-2.167678 3.779761,-4.535715 0.820912,-1.477642 1.360344,-3.109621 2.267857,-4.535715 0.866241,-1.361236 2.193679,-2.396209 3.023809,-3.77976 0.698159,-1.163598 0.905047,-2.566046 1.511906,-3.779764 0.406313,-0.812622 1.105593,-1.455232 1.511906,-2.267857 0.356359,-0.712719 0.399592,-1.555136 0.755951,-2.267855 0.406313,-0.812625 1.044464,-1.488789 1.511904,-2.267858 0.289896,-0.483158 0.41788,-1.061143 0.755954,-1.511905 0.42763,-0.570175 1.084273,-0.941729 1.511903,-1.511904 1.980994,-2.641324 -0.138168,-0.341444 0.755954,-3.023811 1.195293,-3.585882 0.316609,2.073978 1.511904,-1.511904 0.143343,-0.430032 0,-3.067777 0,-3.779763 0,-0.640027 0.135469,-2.617404 0,-3.023809 -0.112692,-0.338071 -0.643261,-0.41788 -0.755952,-0.755952 -0.159369,-0.478107 0.22538,-1.061143 0,-1.511906 -0.112691,-0.22538 -0.530572,0.112692 -0.755952,0 -0.318738,-0.159366 -0.459443,-0.558278 -0.755954,-0.755951 -0.46882,-0.312547 -1.043083,-0.443405 -1.511903,-0.755952 -0.593019,-0.395346 -0.874429,-1.193167 -1.511906,-1.511906 -0.712719,-0.356359 -1.555139,-0.399592 -2.267857,-0.755951 -0.318736,-0.159369 -0.417881,-0.643263 -0.755952,-0.755952 -0.326046,-0.108683 -4.996082,0 -5.291667,0 -1.511905,0 -3.023809,0 -4.535715,0 -0.503967,0 -1.022982,-0.122232 -1.511903,0 -1.829813,0.457451 -1.517708,1.13828 -3.023809,2.267858 -0.450765,0.338071 -1.061143,0.417877 -1.511906,0.755951 -0.570174,0.42763 -0.918887,1.11656 -1.511906,1.511903 -1.605841,1.070563 0.120187,-1.692182 -1.511903,0.755955 -0.312547,0.46882 -0.503968,1.007935 -0.755952,1.511903 -0.251986,0.503968 -0.619296,0.965274 -0.755954,1.511906 -0.183345,0.73338 0,1.511903 0,2.267857 0,0.755952 0,1.511904 0,2.267858 0,0.755951 -0.124277,1.52219 0,2.267855 0.131001,0.786003 0.503968,1.511905 0.755954,2.267857 0.996493,2.989477 0.527479,2.379282 3.02381,5.291667 6.658874,6.658874 -1.544781,-2.322648 3.023809,5.291666 0.289893,0.483159 1.071922,0.403966 1.511903,0.755955 0.834811,0.667845 1.44657,1.583449 2.267857,2.267854 0.697963,0.581637 1.558407,0.944346 2.267858,1.511906 0.55654,0.445233 0.918887,1.11656 1.511906,1.511906 0.937643,0.625094 2.04538,0.952802 3.023809,1.511903 2.958872,1.690786 2.078567,2.031548 6.047618,3.02381 0.733383,0.183345 1.519502,-0.106908 2.267858,0 1.028514,0.146931 1.992876,0.627086 3.023809,0.755954 1.750269,0.218781 3.527777,0 5.291666,0 2.826721,0 6.407275,0.428114 9.071429,-0.755954 2.21351,-0.983782 4.33982,-3.797343 6.04762,-5.291667 0.94819,-0.829662 2.26786,-1.259919 3.02381,-2.267858 0.81419,-1.08558 0.95038,-2.544415 1.5119,-3.77976 0.69948,-1.538849 1.51191,-3.023809 2.26786,-4.535715 1.00794,-1.511904 2.21119,-2.910465 3.02381,-4.535713 0.71272,-1.42544 0.89895,-3.064618 1.5119,-4.535715 3.14981,-7.559524 1.25993,-1.679895 3.77977,-7.559524 0.31389,-0.732414 0.46001,-1.528005 0.75595,-2.267857 0.20926,-0.523153 0.64545,-0.959393 0.75595,-1.511903 0.20034,-1.001705 0,-2.6445 0,-3.779764 0,-0.277614 0.0304,-2.993388 0,-3.023809 -0.17818,-0.17818 -0.53057,0.112691 -0.75595,0 -0.31874,-0.159369 -0.43722,-0.596584 -0.75595,-0.755953 -0.22538,-0.11269 -0.5169,0.07969 -0.75596,0 -0.53453,-0.178179 -0.97736,-0.577772 -1.5119,-0.755952 -0.40913,-0.136375 -2.76628,0 -3.02381,0 -0.25199,0 -0.50397,0 -0.75595,0 -0.25199,0 -0.53057,-0.112691 -0.75595,0 -0.31278,0.156388 -2.05425,1.947437 -2.26786,2.267857 -0.31255,0.468823 -0.50397,1.007938 -0.75595,1.511906 -0.25199,0.503967 -0.44341,1.043082 -0.75596,1.511903 -0.19767,0.29651 -0.66952,0.410234 -0.75595,0.755954 -0.0473,0.189352 -0.13524,4.885931 0,5.291667 0.11269,0.338071 0.55828,0.459443 0.75595,0.755951 0.31255,0.468821 0.44341,1.043083 0.75596,1.511906 0.19767,0.296508 0.50396,0.503968 0.75595,0.755952 0.50397,0.503968 0.94173,1.084273 1.5119,1.511903 0.45077,0.338074 1.06114,0.41788 1.51191,0.755954 0.57017,0.42763 1.00793,1.007936 1.5119,1.511904 1.00794,0.503967 2.0682,0.914646 3.02381,1.511905 1.06841,0.667756 1.92244,1.655985 3.02381,2.267858 1.18621,0.659006 2.50449,1.048165 3.77976,1.511903 4.37855,1.592199 8.94046,2.690477 13.60715,3.023809 3.01612,0.21544 6.04761,0 9.07142,0 2.77183,0 5.54365,0 8.31548,0 1.51191,0 3.03306,0.166963 4.53571,0 0.79197,-0.08799 1.48649,-0.599678 2.26786,-0.755951 0.49418,-0.09884 1.02298,0.122229 1.51191,0 0.54663,-0.136658 1.00793,-0.503968 1.5119,-0.755952 0.50397,-0.251984 1.04308,-0.443405 1.51191,-0.755952 0.29651,-0.197672 0.50396,-0.50397 0.75595,-0.755954 0.25198,-0.251984 0.59658,-0.437213 0.75595,-0.755952 0.35636,-0.712718 0.46001,-1.528005 0.75595,-2.267857 0.20926,-0.523153 0.6193,-0.965274 0.75596,-1.511903 0.12223,-0.488924 0,-1.007938 0,-1.511906 0,-0.755952 0,-1.511906 0,-2.267858 0,-1.007935 0.19767,-2.035447 0,-3.023809 -0.0699,-0.34944 -0.64327,-0.41788 -0.75596,-0.755951 -0.15936,-0.478108 0,-1.007938 0,-1.511906 0,-0.251984 0.11269,-0.530572 0,-0.755952 -0.15936,-0.318738 -0.59658,-0.437216 -0.75595,-0.755951 -0.11269,-0.225383 0.17818,-0.577774 0,-0.755955 -0.17818,-0.178178 -0.57777,0.178181 -0.75595,0 -0.17818,-0.178178 0.17818,-0.577773 0,-0.755951 -0.17818,-0.178181 -0.50397,0 -0.75595,0 -0.25199,0 -0.53057,-0.112692 -0.75596,0 -0.31873,0.159369 -0.50396,0.503967 -0.75595,0.755951 -0.25198,0.251984 -0.64326,0.417881 -0.75595,0.755955 -0.15937,0.478104 0,1.007935 0,1.511903 0,0.503968 0,1.007935 0,1.511906 0,0.540438 -0.12899,4.148751 0,4.535712 0.11269,0.338074 0.59658,0.437216 0.75595,0.755954 0.93094,1.861873 -2.19433,-0.682426 0.75595,2.267858 0.39843,0.39842 1.19936,0.287128 1.51191,0.755951 0.27955,0.419328 -0.27955,1.092579 0,1.511904 0.31255,0.468823 1.11348,0.357531 1.5119,0.755954 0.64244,0.642435 1.00794,1.511903 1.51191,2.267857 0.50397,0.755952 1.04446,1.488787 1.5119,2.267855 0.2899,0.483158 0.41788,1.061143 0.75596,1.511906 0.42763,0.570175 1.08427,0.941729 1.5119,1.511906 0.33807,0.450763 0.41788,1.061141 0.75595,1.511903 0.42763,0.570175 1.06668,0.955366 1.51191,1.511906 0.56756,0.709451 0.96678,1.541023 1.5119,2.267858 0.85526,1.140348 2.13335,1.910728 3.02381,3.023809 0.35199,0.439983 0.35753,1.113483 0.75595,1.511903 0.39843,0.398423 1.11349,0.357531 1.51191,0.755954 0.39842,0.39842 0.41788,1.061141 0.75595,1.511903 0.42763,0.570175 1.08427,0.941729 1.51191,1.511906 0.33807,0.450763 0.35752,1.113483 0.75595,1.511904 0.17818,0.178181 0.57777,-0.178179 0.75595,0 0.17818,0.178181 -0.17818,0.577773 0,0.755954 0.39842,0.39842 1.11348,0.357529 1.51191,0.755951 0.17817,0.178179 -0.17819,0.577774 0,0.755952 0.35635,0.356359 1.15554,-0.356359 1.5119,0 0.17818,0.178181 -0.17818,0.577773 0,0.755952 0.17818,0.178181 0.50397,0 0.75595,0 0.522,0 2.79397,0.114919 3.02381,0 1.26028,-0.63014 0.34157,-1.511904 2.26786,-1.511904"
       id="path3729"
       inkscape:connector-curvature="0" />
  </g>
</svg>
